<svg width="200" height="200" viewBox="0 0 200 200" xmlns="http://www.w3.org/2000/svg">
  <defs>
    <!-- Gradients -->
    <linearGradient id="managementGradient" x1="0%" y1="0%" x2="100%" y2="100%">
      <stop offset="0%" style="stop-color:#6f42c1;stop-opacity:1" />
      <stop offset="50%" style="stop-color:#5865f2;stop-opacity:1" />
      <stop offset="100%" style="stop-color:#00d4aa;stop-opacity:1" />
    </linearGradient>
    
    <linearGradient id="terminalGradient" x1="0%" y1="0%" x2="100%" y2="100%">
      <stop offset="0%" style="stop-color:#24292e;stop-opacity:1" />
      <stop offset="100%" style="stop-color:#586069;stop-opacity:1" />
    </linearGradient>
    
    <radialGradient id="screenGlow" cx="50%" cy="50%" r="50%">
      <stop offset="0%" style="stop-color:#00d4aa;stop-opacity:0.8" />
      <stop offset="70%" style="stop-color:#00d4aa;stop-opacity:0.3" />
      <stop offset="100%" style="stop-color:#00d4aa;stop-opacity:0" />
    </radialGradient>
    
    <!-- Filters -->
    <filter id="terminalGlow" x="-50%" y="-50%" width="200%" height="200%">
      <feGaussianBlur stdDeviation="3" result="coloredBlur"/>
      <feMerge> 
        <feMergeNode in="coloredBlur"/>
        <feMergeNode in="SourceGraphic"/>
      </feMerge>
    </filter>
    
    <filter id="shadow" x="-50%" y="-50%" width="200%" height="200%">
      <feDropShadow dx="3" dy="5" stdDeviation="4" flood-color="#000000" flood-opacity="0.3"/>
    </filter>
  </defs>
  
  <!-- Background -->
  <circle cx="100" cy="100" r="95" fill="url(#managementGradient)" opacity="0.1"/>
  
  <!-- Terminal Window -->
  <g transform="translate(100, 100)">
    <!-- Terminal Frame -->
    <rect x="-70" y="-50" width="140" height="100" rx="8" fill="#24292e" filter="url(#shadow)"/>
    <rect x="-65" y="-45" width="130" height="90" rx="5" fill="#1e1e1e"/>
    
    <!-- Terminal Header -->
    <rect x="-65" y="-45" width="130" height="15" rx="5" fill="#2d2d30"/>
    <circle cx="-55" cy="-37.5" r="2.5" fill="#ff5f56"/>
    <circle cx="-47" cy="-37.5" r="2.5" fill="#ffbd2e"/>
    <circle cx="-39" cy="-37.5" r="2.5" fill="#27ca3f"/>
    <text x="0" y="-35" text-anchor="middle" font-family="monospace" font-size="4" fill="#cccccc">SwESuKBot Terminal</text>
    
    <!-- Terminal Content -->
    <rect x="-60" y="-25" width="120" height="65" fill="#1e1e1e"/>
    
    <!-- Command Lines -->
    <g font-family="monospace" font-size="3.5">
      <!-- Prompt -->
      <text x="-55" y="-18" fill="#00d4aa">$</text>
      <text x="-50" y="-18" fill="#ffffff">swesukbot status</text>
      
      <!-- Output -->
      <text x="-55" y="-12" fill="#43b581">✓ Bot Status: Online</text>
      <text x="-55" y="-7" fill="#43b581">✓ GitHub Connected: SwESuKBot/main</text>
      <text x="-55" y="-2" fill="#43b581">✓ Discord Connected: 3 servers</text>
      <text x="-55" y="3" fill="#ffd33d">⚡ Active Webhooks: 12</text>
      
      <!-- New Command -->
      <text x="-55" y="12" fill="#00d4aa">$</text>
      <text x="-50" y="12" fill="#ffffff">swesukbot repo add</text>
      <rect x="-5" y="9" width="1" height="4" fill="#ffffff">
        <animate attributeName="opacity" values="1;0;1" dur="1s" repeatCount="indefinite"/>
      </rect>
      
      <!-- Repository List -->
      <text x="-55" y="20" fill="#7289da">Available repositories:</text>
      <text x="-50" y="25" fill="#ffffff">1. SwESuKBot/core</text>
      <text x="-50" y="30" fill="#ffffff">2. SwESuKBot/web-ui</text>
      <text x="-50" y="35" fill="#ffffff">3. SwESuKBot/docs</text>
    </g>
  </g>
  
  <!-- Repository Cards -->
  <g opacity="0.9">
    <!-- Repo 1 -->
    <g transform="translate(30, 50)">
      <rect x="0" y="0" width="50" height="30" rx="5" fill="#24292e" filter="url(#shadow)">
        <animate attributeName="transform" values="scale(0.9); scale(1); scale(0.9)" dur="4s" repeatCount="indefinite"/>
      </rect>
      <circle cx="8" cy="8" r="3" fill="#f1e05a"/>
      <text x="14" y="7" font-family="Arial, sans-serif" font-size="3" fill="#ffffff">core</text>
      <text x="14" y="11" font-family="Arial, sans-serif" font-size="2" fill="#7d8590">JavaScript</text>
      <rect x="5" y="15" width="15" height="3" rx="1.5" fill="#28a745"/>
      <text x="6" y="17.5" font-family="Arial, sans-serif" font-size="2" fill="#ffffff">Active</text>
      <rect x="25" y="15" width="20" height="3" rx="1.5" fill="#0366d6"/>
      <text x="26" y="17.5" font-family="Arial, sans-serif" font-size="2" fill="#ffffff">12 commits</text>
      
      <!-- Stars -->
      <polygon points="42,22 43,25 46,25 44,27 45,30 42,28 39,30 40,27 38,25 41,25" fill="#ffd33d"/>
      <text x="40" y="26" font-family="Arial, sans-serif" font-size="2" fill="#ffffff">47</text>
    </g>
    
    <!-- Repo 2 -->
    <g transform="translate(120, 40)">
      <rect x="0" y="0" width="50" height="30" rx="5" fill="#24292e" filter="url(#shadow)">
        <animate attributeName="transform" values="scale(0.9); scale(1); scale(0.9)" dur="4s" repeatCount="indefinite" begin="1s"/>
      </rect>
      <circle cx="8" cy="8" r="3" fill="#e34c26"/>
      <text x="14" y="7" font-family="Arial, sans-serif" font-size="3" fill="#ffffff">web-ui</text>
      <text x="14" y="11" font-family="Arial, sans-serif" font-size="2" fill="#7d8590">HTML/CSS</text>
      <rect x="5" y="15" width="15" height="3" rx="1.5" fill="#6f42c1"/>
      <text x="6" y="17.5" font-family="Arial, sans-serif" font-size="2" fill="#ffffff">Deploy</text>
      <rect x="25" y="15" width="20" height="3" rx="1.5" fill="#d73a49"/>
      <text x="26" y="17.5" font-family="Arial, sans-serif" font-size="2" fill="#ffffff">3 issues</text>
      
      <!-- Fork -->
      <path d="M42,22 L44,24 L42,26 M44,24 L40,24" stroke="#7d8590" stroke-width="0.5" fill="none"/>
      <text x="39" y="26" font-family="Arial, sans-serif" font-size="2" fill="#7d8590">23</text>
    </g>
    
    <!-- Repo 3 -->
    <g transform="translate(75, 150)">
      <rect x="0" y="0" width="50" height="30" rx="5" fill="#24292e" filter="url(#shadow)">
        <animate attributeName="transform" values="scale(0.9); scale(1); scale(0.9)" dur="4s" repeatCount="indefinite" begin="2s"/>
      </rect>
      <circle cx="8" cy="8" r="3" fill="#083fa1"/>
      <text x="14" y="7" font-family="Arial, sans-serif" font-size="3" fill="#ffffff">docs</text>
      <text x="14" y="11" font-family="Arial, sans-serif" font-size="2" fill="#7d8590">Markdown</text>
      <rect x="5" y="15" width="15" height="3" rx="1.5" fill="#28a745"/>
      <text x="6" y="17.5" font-family="Arial, sans-serif" font-size="2" fill="#ffffff">Updated</text>
      <rect x="25" y="15" width="20" height="3" rx="1.5" fill="#28a745"/>
      <text x="26" y="17.5" font-family="Arial, sans-serif" font-size="2" fill="#ffffff">100% docs</text>
      
      <!-- Book icon -->
      <rect x="40" y="22" width="6" height="8" rx="1" fill="#7d8590"/>
      <line x1="41" y1="24" x2="45" y2="24" stroke="#ffffff" stroke-width="0.3"/>
      <line x1="41" y1="26" x2="45" y2="26" stroke="#ffffff" stroke-width="0.3"/>
      <line x1="41" y1="28" x2="45" y2="28" stroke="#ffffff" stroke-width="0.3"/>
    </g>
  </g>
  
  <!-- Command Buttons -->
  <g transform="translate(100, 50)">
    <!-- Add Repository -->
    <g transform="translate(-60, 0)">
      <rect x="0" y="0" width="25" height="12" rx="6" fill="#28a745" filter="url(#terminalGlow)">
        <animate attributeName="fill" values="#28a745;#34d058;#28a745" dur="2s" repeatCount="indefinite"/>
      </rect>
      <text x="12.5" y="8" text-anchor="middle" font-family="Arial, sans-serif" font-size="3" fill="#ffffff">+ Add</text>
    </g>
    
    <!-- Deploy -->
    <g transform="translate(-25, 0)">
      <rect x="0" y="0" width="25" height="12" rx="6" fill="#0366d6" filter="url(#terminalGlow)">
        <animate attributeName="fill" values="#0366d6;#2188ff;#0366d6" dur="2s" repeatCount="indefinite" begin="0.5s"/>
      </rect>
      <text x="12.5" y="8" text-anchor="middle" font-family="Arial, sans-serif" font-size="3" fill="#ffffff">Deploy</text>
    </g>
    
    <!-- Monitor -->
    <g transform="translate(10, 0)">
      <rect x="0" y="0" width="25" height="12" rx="6" fill="#6f42c1" filter="url(#terminalGlow)">
        <animate attributeName="fill" values="#6f42c1;#8a63d2;#6f42c1" dur="2s" repeatCount="indefinite" begin="1s"/>
      </rect>
      <text x="12.5" y="8" text-anchor="middle" font-family="Arial, sans-serif" font-size="3" fill="#ffffff">Monitor</text>
    </g>
    
    <!-- Settings -->
    <g transform="translate(45, 0)">
      <rect x="0" y="0" width="25" height="12" rx="6" fill="#586069" filter="url(#terminalGlow)">
        <animate attributeName="fill" values="#586069;#6a737d;#586069" dur="2s" repeatCount="indefinite" begin="1.5s"/>
      </rect>
      <text x="12.5" y="8" text-anchor="middle" font-family="Arial, sans-serif" font-size="3" fill="#ffffff">Config</text>
    </g>
  </g>
  
  <!-- Management Icons -->
  <g opacity="0.7">
    <!-- Git Branch -->
    <g transform="translate(40, 120)">
      <circle cx="0" cy="0" r="8" fill="url(#managementGradient)" opacity="0.8">
        <animateTransform attributeName="transform" type="translate" 
                          values="40,120; 30,110; 40,120" dur="3s" repeatCount="indefinite"/>
      </circle>
      <path d="M-3,-3 Q0,-6 3,-3 M0,-3 L0,3 M-3,3 Q0,6 3,3" stroke="#ffffff" stroke-width="1" fill="none"/>
    </g>
    
    <!-- Webhook -->
    <g transform="translate(160, 120)">
      <circle cx="0" cy="0" r="8" fill="url(#managementGradient)" opacity="0.8">
        <animateTransform attributeName="transform" type="translate" 
                          values="160,120; 170,110; 160,120" dur="4s" repeatCount="indefinite"/>
      </circle>
      <path d="M-4,-2 Q0,-4 4,-2 Q6,0 4,2 Q0,4 -4,2 Q-6,0 -4,-2 Z" stroke="#ffffff" stroke-width="1" fill="none"/>
      <circle cx="0" cy="0" r="1.5" fill="#ffffff"/>
    </g>
    
    <!-- Database -->
    <g transform="translate(30, 170)">
      <circle cx="0" cy="0" r="8" fill="url(#managementGradient)" opacity="0.8">
        <animateTransform attributeName="transform" type="translate" 
                          values="30,170; 20,160; 30,170" dur="5s" repeatCount="indefinite"/>
      </circle>
      <ellipse cx="0" cy="-2" rx="4" ry="1.5" fill="#ffffff"/>
      <rect x="-4" y="-2" width="8" height="4" fill="#ffffff"/>
      <ellipse cx="0" cy="2" rx="4" ry="1.5" fill="#ffffff"/>
    </g>
  </g>
  
  <!-- Data Flow -->
  <g opacity="0.5">
    <path d="M60,70 Q80,90 100,100" stroke="url(#managementGradient)" stroke-width="2" 
          fill="none" stroke-dasharray="6,4">
      <animate attributeName="stroke-dashoffset" values="0;10" dur="2s" repeatCount="indefinite"/>
    </path>
    <path d="M140,70 Q120,90 100,100" stroke="url(#managementGradient)" stroke-width="2" 
          fill="none" stroke-dasharray="6,4">
      <animate attributeName="stroke-dashoffset" values="0;-10" dur="2s" repeatCount="indefinite"/>
    </path>
    <path d="M100,130 Q110,120 120,110" stroke="url(#managementGradient)" stroke-width="2" 
          fill="none" stroke-dasharray="6,4">
      <animate attributeName="stroke-dashoffset" values="0;10" dur="2s" repeatCount="indefinite"/>
    </path>
  </g>
  
  <!-- Status Indicators -->
  <g transform="translate(100, 180)">
    <!-- Active Repos -->
    <rect x="-40" y="0" width="25" height="8" rx="4" fill="#28a745" opacity="0.9"/>
    <text x="-38" y="5" font-family="Arial, sans-serif" font-size="3" fill="#ffffff">3 Active</text>
    
    <!-- Commands -->
    <rect x="-10" y="0" width="20" height="8" rx="4" fill="#0366d6" opacity="0.9"/>
    <text x="-8" y="5" font-family="Arial, sans-serif" font-size="3" fill="#ffffff">47 Cmds</text>
    
    <!-- Uptime -->
    <rect x="15" y="0" width="25" height="8" rx="4" fill="#6f42c1" opacity="0.9"/>
    <text x="17" y="5" font-family="Arial, sans-serif" font-size="3" fill="#ffffff">99.9% Up</text>
  </g>
  
  <!-- Outer Ring -->
  <circle cx="100" cy="100" r="90" fill="none" stroke="url(#managementGradient)" 
          stroke-width="2" stroke-dasharray="12,8" opacity="0.4">
    <animateTransform attributeName="transform" type="rotate" 
                      values="0 100 100; 360 100 100" dur="25s" repeatCount="indefinite"/>
  </circle>
  
  <!-- Inner Glow -->
  <circle cx="100" cy="100" r="75" fill="none" stroke="#00d4aa" 
          stroke-width="1" stroke-dasharray="8,12" opacity="0.3">
    <animateTransform attributeName="transform" type="rotate" 
                      values="360 100 100; 0 100 100" dur="20s" repeatCount="indefinite"/>
  </circle>
  
</svg>
