<svg width="300" height="300" viewBox="0 0 300 300" xmlns="http://www.w3.org/2000/svg">
  <defs>
    <!-- Gradients -->
    <linearGradient id="githubGradient" x1="0%" y1="0%" x2="100%" y2="100%">
      <stop offset="0%" style="stop-color:#24292e;stop-opacity:1" />
      <stop offset="50%" style="stop-color:#586069;stop-opacity:1" />
      <stop offset="100%" style="stop-color:#6f42c1;stop-opacity:1" />
    </linearGradient>
    
    <linearGradient id="codeGradient" x1="0%" y1="0%" x2="100%" y2="0%">
      <stop offset="0%" style="stop-color:#28a745;stop-opacity:1" />
      <stop offset="33%" style="stop-color:#ffd33d;stop-opacity:1" />
      <stop offset="66%" style="stop-color:#f1e05a;stop-opacity:1" />
      <stop offset="100%" style="stop-color:#e34c26;stop-opacity:1" />
    </linearGradient>
    
    <radialGradient id="screenGlow" cx="50%" cy="50%" r="50%">
      <stop offset="0%" style="stop-color:#ffffff;stop-opacity:0.9" />
      <stop offset="70%" style="stop-color:#f6f8fa;stop-opacity:0.7" />
      <stop offset="100%" style="stop-color:#24292e;stop-opacity:0.1" />
    </radialGradient>
    
    <!-- Filters -->
    <filter id="dropShadow" x="-50%" y="-50%" width="200%" height="200%">
      <feDropShadow dx="3" dy="6" stdDeviation="4" flood-color="#000000" flood-opacity="0.3"/>
    </filter>
    
    <filter id="innerShadow" x="-50%" y="-50%" width="200%" height="200%">
      <feOffset dx="0" dy="2"/>
      <feGaussianBlur stdDeviation="2" result="offset-blur"/>
      <feFlood flood-color="#000000" flood-opacity="0.2"/>
      <feComposite in2="offset-blur" operator="in"/>
      <feMerge> 
        <feMergeNode/>
        <feMergeNode in="SourceGraphic"/> 
      </feMerge>
    </filter>
    
    <!-- Patterns -->
    <pattern id="codePattern" x="0" y="0" width="100" height="20" patternUnits="userSpaceOnUse">
      <rect width="100" height="20" fill="#f6f8fa"/>
      <text x="5" y="14" font-family="monospace" font-size="10" fill="#24292e">function() {</text>
    </pattern>
  </defs>
  
  <!-- Background Circle -->
  <circle cx="150" cy="150" r="140" fill="url(#githubGradient)" filter="url(#dropShadow)" opacity="0.1"/>
  
  <!-- Main Container -->
  <g transform="translate(150, 150)">
    
    <!-- Laptop Base -->
    <g transform="translate(0, 20)">
      <!-- Laptop Bottom -->
      <ellipse cx="0" cy="60" rx="80" ry="15" fill="#24292e" filter="url(#dropShadow)"/>
      <ellipse cx="0" cy="58" rx="75" ry="12" fill="#586069"/>
      
      <!-- Laptop Keyboard Area -->
      <rect x="-70" y="45" width="140" height="25" rx="5" ry="5" fill="#24292e"/>
      <rect x="-65" y="48" width="130" height="19" rx="3" ry="3" fill="#586069"/>
      
      <!-- Keyboard Keys -->
      <g opacity="0.7">
        <rect x="-60" y="52" width="8" height="6" rx="1" fill="#24292e"/>
        <rect x="-48" y="52" width="8" height="6" rx="1" fill="#24292e"/>
        <rect x="-36" y="52" width="8" height="6" rx="1" fill="#24292e"/>
        <rect x="-24" y="52" width="8" height="6" rx="1" fill="#24292e"/>
        <rect x="-12" y="52" width="8" height="6" rx="1" fill="#24292e"/>
        <rect x="0" y="52" width="8" height="6" rx="1" fill="#24292e"/>
        <rect x="12" y="52" width="8" height="6" rx="1" fill="#24292e"/>
        <rect x="24" y="52" width="8" height="6" rx="1" fill="#24292e"/>
        <rect x="36" y="52" width="8" height="6" rx="1" fill="#24292e"/>
        <rect x="48" y="52" width="8" height="6" rx="1" fill="#24292e"/>
        
        <!-- Second row -->
        <rect x="-55" y="60" width="8" height="6" rx="1" fill="#24292e"/>
        <rect x="-43" y="60" width="8" height="6" rx="1" fill="#24292e"/>
        <rect x="-31" y="60" width="8" height="6" rx="1" fill="#24292e"/>
        <rect x="-19" y="60" width="8" height="6" rx="1" fill="#24292e"/>
        <rect x="-7" y="60" width="8" height="6" rx="1" fill="#24292e"/>
        <rect x="5" y="60" width="8" height="6" rx="1" fill="#24292e"/>
        <rect x="17" y="60" width="8" height="6" rx="1" fill="#24292e"/>
        <rect x="29" y="60" width="8" height="6" rx="1" fill="#24292e"/>
        <rect x="41" y="60" width="8" height="6" rx="1" fill="#24292e"/>
      </g>
      
      <!-- Trackpad -->
      <rect x="-15" y="55" width="30" height="20" rx="3" ry="3" fill="#24292e" opacity="0.5"/>
    </g>
    
    <!-- Laptop Screen -->
    <g transform="translate(0, -20)">
      <!-- Screen Bezel -->
      <rect x="-75" y="-50" width="150" height="100" rx="8" ry="8" fill="#24292e" filter="url(#dropShadow)"/>
      <rect x="-70" y="-45" width="140" height="90" rx="5" ry="5" fill="#000000"/>
      
      <!-- Screen Content -->
      <rect x="-65" y="-40" width="130" height="80" rx="3" ry="3" fill="url(#screenGlow)"/>
      
      <!-- GitHub Interface -->
      <!-- Top Bar -->
      <rect x="-65" y="-40" width="130" height="12" fill="#24292e"/>
      <circle cx="-55" cy="-34" r="2" fill="#ff5f56"/>
      <circle cx="-47" cy="-34" r="2" fill="#ffbd2e"/>
      <circle cx="-39" cy="-34" r="2" fill="#27ca3f"/>
      
      <!-- URL Bar -->
      <rect x="-20" y="-37" width="40" height="6" rx="3" fill="#586069"/>
      <text x="-18" y="-32" font-family="monospace" font-size="4" fill="#ffffff">github.com</text>
      
      <!-- Repository Header -->
      <rect x="-60" y="-25" width="120" height="8" fill="#f6f8fa"/>
      <circle cx="-55" cy="-21" r="2" fill="#586069"/>
      <rect x="-50" y="-23" width="30" height="4" fill="#0366d6"/>
      <text x="-48" y="-20" font-family="monospace" font-size="3" fill="#ffffff">SwESuKBot</text>
      
      <!-- File Tree -->
      <g transform="translate(-60, -15)">
        <rect x="0" y="0" width="50" height="35" fill="#ffffff" stroke="#e1e4e8" stroke-width="0.5"/>
        
        <!-- Folder Icons and Names -->
        <g opacity="0.8">
          <rect x="2" y="2" width="4" height="3" fill="#79b8ff"/>
          <text x="8" y="5" font-family="monospace" font-size="3" fill="#24292e">.github</text>
          
          <rect x="2" y="7" width="4" height="3" fill="#79b8ff"/>
          <text x="8" y="10" font-family="monospace" font-size="3" fill="#24292e">src</text>
          
          <circle cx="4" cy="14" r="1.5" fill="#28a745"/>
          <text x="8" y="15" font-family="monospace" font-size="3" fill="#24292e">index.js</text>
          
          <circle cx="4" cy="19" r="1.5" fill="#f1e05a"/>
          <text x="8" y="20" font-family="monospace" font-size="3" fill="#24292e">style.css</text>
          
          <circle cx="4" cy="24" r="1.5" fill="#e34c26"/>
          <text x="8" y="25" font-family="monospace" font-size="3" fill="#24292e">README.md</text>
          
          <circle cx="4" cy="29" r="1.5" fill="#563d7c"/>
          <text x="8" y="30" font-family="monospace" font-size="3" fill="#24292e">package.json</text>
        </g>
      </g>
      
      <!-- Code Editor -->
      <g transform="translate(-5, -15)">
        <rect x="0" y="0" width="65" height="35" fill="#24292e" stroke="#30363d" stroke-width="0.5"/>
        
        <!-- Code Lines -->
        <g font-family="monospace" font-size="2.5">
          <!-- Line numbers -->
          <text x="2" y="4" fill="#6e7681">1</text>
          <text x="2" y="8" fill="#6e7681">2</text>
          <text x="2" y="12" fill="#6e7681">3</text>
          <text x="2" y="16" fill="#6e7681">4</text>
          <text x="2" y="20" fill="#6e7681">5</text>
          <text x="2" y="24" fill="#6e7681">6</text>
          <text x="2" y="28" fill="#6e7681">7</text>
          <text x="2" y="32" fill="#6e7681">8</text>
          
          <!-- Code content -->
          <text x="8" y="4" fill="#ff7b72">const</text>
          <text x="18" y="4" fill="#79c0ff"> bot </text>
          <text x="25" y="4" fill="#ff7b72">=</text>
          <text x="28" y="4" fill="#a5a5a5"> require</text>
          
          <text x="8" y="8" fill="#79c0ff">bot</text>
          <text x="15" y="8" fill="#ff7b72">.</text>
          <text x="17" y="8" fill="#d2a8ff">on</text>
          <text x="22" y="8" fill="#a5a5a5">(</text>
          <text x="24" y="8" fill="#a5d6ff">'ready'</text>
          
          <text x="8" y="12" fill="#79c0ff">  console</text>
          <text x="20" y="12" fill="#ff7b72">.</text>
          <text x="22" y="12" fill="#d2a8ff">log</text>
          <text x="27" y="12" fill="#a5a5a5">(</text>
          
          <text x="8" y="16" fill="#a5d6ff">    'Bot ready!'</text>
          <text x="25" y="16" fill="#a5a5a5">)</text>
          
          <text x="8" y="20" fill="#a5a5a5">})</text>
          
          <text x="8" y="24" fill="#79c0ff">bot</text>
          <text x="15" y="24" fill="#ff7b72">.</text>
          <text x="17" y="24" fill="#d2a8ff">login</text>
          <text x="25" y="24" fill="#a5a5a5">(</text>
          
          <text x="8" y="28" fill="#a5d6ff">  process.env.TOKEN</text>
          
          <text x="8" y="32" fill="#a5a5a5">)</text>
        </g>
        
        <!-- Cursor -->
        <rect x="30" y="30" width="0.5" height="3" fill="#79c0ff">
          <animate attributeName="opacity" values="1;0;1" dur="1s" repeatCount="indefinite"/>
        </rect>
      </g>
      
      <!-- Status Bar -->
      <rect x="-65" y="35" width="130" height="5" fill="#21262d"/>
      <circle cx="-60" cy="37.5" r="1" fill="#28a745"/>
      <text x="-55" y="39" font-family="monospace" font-size="2" fill="#7d8590">main</text>
      <text x="40" y="39" font-family="monospace" font-size="2" fill="#7d8590">JavaScript</text>
    </g>
    
    <!-- GitHub Logo -->
    <g transform="translate(0, -80)">
      <circle cx="0" cy="0" r="15" fill="#24292e" filter="url(#dropShadow)"/>
      <!-- Octocat -->
      <path d="M-8,-3 C-8,-8 -4,-12 0,-12 C4,-12 8,-8 8,-3 C8,2 4,6 0,6 C-4,6 -8,2 -8,-3 Z" fill="#ffffff"/>
      <circle cx="-3" cy="-1" r="1.5" fill="#24292e"/>
      <circle cx="3" cy="-1" r="1.5" fill="#24292e"/>
      <path d="M-2,2 Q0,4 2,2" stroke="#24292e" stroke-width="1" fill="none"/>
      <!-- Tentacles -->
      <path d="M-8,0 Q-12,2 -10,6 Q-8,8 -6,6" stroke="#24292e" stroke-width="1.5" fill="none"/>
      <path d="M8,0 Q12,2 10,6 Q8,8 6,6" stroke="#24292e" stroke-width="1.5" fill="none"/>
    </g>
    
    <!-- Floating Code Elements -->
    <g opacity="0.6">
      <!-- Commit Hash -->
      <g transform="translate(-80, -60)">
        <rect x="0" y="0" width="25" height="8" rx="4" fill="#28a745" opacity="0.8"/>
        <text x="2" y="6" font-family="monospace" font-size="4" fill="#ffffff">a1b2c3d</text>
        <animateTransform attributeName="transform" type="translate" 
                          values="-80,-60; -70,-50; -80,-60" dur="4s" repeatCount="indefinite"/>
      </g>
      
      <!-- Pull Request -->
      <g transform="translate(60, -70)">
        <rect x="0" y="0" width="20" height="6" rx="3" fill="#6f42c1" opacity="0.8"/>
        <text x="2" y="4" font-family="monospace" font-size="3" fill="#ffffff">PR #42</text>
        <animateTransform attributeName="transform" type="translate" 
                          values="60,-70; 70,-60; 60,-70" dur="3s" repeatCount="indefinite"/>
      </g>
      
      <!-- Issue -->
      <g transform="translate(-90, 60)">
        <circle cx="8" cy="4" r="8" fill="#d73a49" opacity="0.8"/>
        <text x="4" y="7" font-family="monospace" font-size="3" fill="#ffffff">!</text>
        <animateTransform attributeName="transform" type="translate" 
                          values="-90,60; -80,70; -90,60" dur="5s" repeatCount="indefinite"/>
      </g>
      
      <!-- Star -->
      <g transform="translate(80, 50)">
        <polygon points="8,2 10,6 14,6 11,9 12,13 8,11 4,13 5,9 2,6 6,6" fill="#ffd33d" opacity="0.8"/>
        <animateTransform attributeName="transform" type="translate" 
                          values="80,50; 90,40; 80,50" dur="6s" repeatCount="indefinite"/>
      </g>
    </g>
    
    <!-- Data Flow Lines -->
    <g opacity="0.4">
      <path d="M-60,-20 Q-40,0 -20,20" stroke="url(#codeGradient)" stroke-width="2" fill="none" stroke-dasharray="5,5">
        <animate attributeName="stroke-dashoffset" values="0;10" dur="2s" repeatCount="indefinite"/>
      </path>
      <path d="M60,-20 Q40,0 20,20" stroke="url(#codeGradient)" stroke-width="2" fill="none" stroke-dasharray="5,5">
        <animate attributeName="stroke-dashoffset" values="0;-10" dur="2s" repeatCount="indefinite"/>
      </path>
    </g>
    
  </g>
  
  <!-- Outer Decorative Ring -->
  <circle cx="150" cy="150" r="145" fill="none" stroke="url(#githubGradient)" 
          stroke-width="2" stroke-dasharray="15,10" opacity="0.3">
    <animateTransform attributeName="transform" type="rotate" 
                      values="0 150 150; 360 150 150" dur="30s" repeatCount="indefinite"/>
  </circle>
  
</svg>
